<?xml version="1.0" encoding="UTF-8" standalone="no"?><!DOCTYPE svg PUBLIC "-//W3C//DTD SVG 1.1//EN" "http://www.w3.org/Graphics/SVG/1.1/DTD/svg11.dtd"><!-- Generated by graphviz version 2.40.1 (20161225.0304)
 --><!-- Title: G Pages: 1 --><svg xmlns="http://www.w3.org/2000/svg" xmlns:xlink="http://www.w3.org/1999/xlink" width="1686pt" height="482pt" viewBox="0.00 0.00 1685.92 481.93">
<g id="graph0" class="graph" transform="scale(1 1) rotate(0) translate(4 477.9337)">
<title>G</title>
<polygon fill="#ffffff" stroke="transparent" points="-4,4 -4,-477.9337 1681.923,-477.9337 1681.923,4 -4,4"/>
<!-- sleep -->
<g id="node1" class="node">
<title>sleep</title>
<ellipse fill="none" stroke="#000000" cx="32.4904" cy="-239.1337" rx="32.4808" ry="18"/>
<text text-anchor="middle" x="32.4904" y="-234.9337" font-family="Times,serif" font-size="14.00" fill="#000000">Sleep</text>
</g>
<!-- sleep&#45;&gt;sleep -->
<g id="edge21" class="edge">
<title>sleep-&gt;sleep</title>
<path fill="none" stroke="#000000" d="M10.8986,-252.8007C2.2619,-263.79 9.4591,-275.1337 32.4904,-275.1337 48.6842,-275.1337 57.05,-269.5256 57.5877,-262.3757"/>
<polygon fill="#000000" stroke="#000000" points="60.8068,-260.9879 54.0822,-252.8007 54.2335,-263.3945 60.8068,-260.9879"/>
</g>
<!-- study -->
<g id="node3" class="node">
<title>study</title>
<ellipse fill="none" stroke="#000000" cx="355.8137" cy="-199.1337" rx="33.6479" ry="18"/>
<text text-anchor="middle" x="355.8137" y="-194.9337" font-family="Times,serif" font-size="14.00" fill="#000000">Study</text>
</g>
<!-- sleep&#45;&gt;study -->
<g id="edge2" class="edge">
<title>sleep-&gt;study</title>
<path fill="none" stroke="#000000" d="M47.6948,-223.1708C56.9704,-214.6165 69.593,-204.9165 82.9808,-200.3337 161.0782,-173.6004 259.2795,-182.7077 314.0232,-191.2479"/>
<polygon fill="#000000" stroke="#000000" points="313.6163,-194.7277 324.0492,-192.8823 314.7426,-187.8188 313.6163,-194.7277"/>
<text text-anchor="middle" x="167.9251" y="-205.3337" font-family="Times,serif" font-size="14.00" fill="#000000">Hour 8</text>
</g>
<!-- eat -->
<g id="node4" class="node">
<title>eat</title>
<ellipse fill="none" stroke="#000000" cx="1061.1051" cy="-239.1337" rx="27" ry="18"/>
<text text-anchor="middle" x="1061.1051" y="-234.9337" font-family="Times,serif" font-size="14.00" fill="#000000">Eat</text>
</g>
<!-- sleep&#45;&gt;eat -->
<g id="edge1" class="edge">
<title>sleep-&gt;eat</title>
<path fill="none" stroke="#000000" d="M40.2535,-256.831C48.6582,-274.2987 63.5144,-300.8328 82.9808,-318.1337 152.3334,-379.7716 180.434,-388.3862 270.8694,-409.1337 579.4539,-479.9289 702.8456,-487.6933 979.1566,-333.1337 1008.0528,-316.9701 1031.6694,-286.5729 1046.0022,-264.7161"/>
<polygon fill="#000000" stroke="#000000" points="1048.9856,-266.5469 1051.3873,-256.2279 1043.0748,-262.797 1048.9856,-266.5469"/>
<text text-anchor="middle" x="538.0687" y="-461.3337" font-family="Times,serif" font-size="14.00" fill="#000000">Hour 7 with a 95% chance</text>
</g>
<!-- death -->
<g id="node5" class="node">
<title>death</title>
<ellipse fill="none" stroke="#000000" cx="1639.8296" cy="-140.1337" rx="34.1773" ry="34.1773"/>
<ellipse fill="none" stroke="#000000" cx="1639.8296" cy="-140.1337" rx="38.1871" ry="38.1871"/>
<text text-anchor="middle" x="1639.8296" y="-135.9337" font-family="Times,serif" font-size="14.00" fill="#000000">Death</text>
</g>
<!-- sleep&#45;&gt;death -->
<g id="edge16" class="edge">
<title>sleep-&gt;death</title>
<path fill="none" stroke="#000000" d="M43.6807,-221.9455C80.8629,-167.1449 206.4341,-.1337 355.8137,-.1337 355.8137,-.1337 355.8137,-.1337 1373.8907,-.1337 1470.1938,-.1337 1505.4891,2.0062 1583.7362,-54.1337 1598.6282,-64.8184 1610.6065,-80.7934 1619.6093,-96.0855"/>
<polygon fill="#000000" stroke="#000000" points="1616.6356,-97.9392 1624.5657,-104.9652 1622.7479,-94.5275 1616.6356,-97.9392"/>
<text text-anchor="middle" x="904.7123" y="-4.3337" font-family="Times,serif" font-size="14.00" fill="#000000">One of the stats is zero</text>
</g>
<!-- exam -->
<g id="node2" class="node">
<title>exam</title>
<ellipse fill="none" stroke="#000000" cx="1373.8907" cy="-140.1337" rx="33.6266" ry="18"/>
<text text-anchor="middle" x="1373.8907" y="-135.9337" font-family="Times,serif" font-size="14.00" fill="#000000">Exam</text>
</g>
<!-- exam&#45;&gt;exam -->
<g id="edge24" class="edge">
<title>exam-&gt;exam</title>
<path fill="none" stroke="#000000" d="M1351.0105,-153.4263C1341.2327,-164.5307 1348.8594,-176.1337 1373.8907,-176.1337 1391.8819,-176.1337 1400.8819,-170.1396 1400.8906,-162.6447"/>
<polygon fill="#000000" stroke="#000000" points="1404.0465,-161.1279 1396.7708,-153.4263 1397.6556,-163.9841 1404.0465,-161.1279"/>
<text text-anchor="middle" x="1373.8907" y="-180.3337" font-family="Times,serif" font-size="14.00" fill="#000000">Hour 8 with a 20% chance</text>
</g>
<!-- exam&#45;&gt;study -->
<g id="edge11" class="edge">
<title>exam-&gt;study</title>
<path fill="none" stroke="#000000" d="M1340.2452,-140.3578C1295.2966,-140.7059 1213.1735,-141.5125 1143.0536,-143.1337 838.4582,-150.1761 761.4766,-149.6464 458.758,-184.1337 438.7718,-186.4107 416.691,-189.5455 398.1212,-192.3609"/>
<polygon fill="#000000" stroke="#000000" points="397.554,-188.9069 388.2013,-193.8846 398.6168,-195.8257 397.554,-188.9069"/>
<text text-anchor="middle" x="904.7123" y="-173.1337" font-family="Times,serif" font-size="14.00" fill="#000000">Hour 9 with a 80% chance</text>
<text text-anchor="middle" x="904.7123" y="-156.3337" font-family="Times,serif" font-size="14.00" fill="#000000">Hour 10 if hunger &gt; 10</text>
</g>
<!-- exam&#45;&gt;eat -->
<g id="edge12" class="edge">
<title>exam-&gt;eat</title>
<path fill="none" stroke="#000000" d="M1340.0978,-140.7242C1284.7166,-142.1318 1177.3574,-146.8321 1143.0536,-162.3337 1117.1671,-174.0316 1094.2039,-197.2881 1079.2205,-215.1587"/>
<polygon fill="#000000" stroke="#000000" points="1076.4982,-212.9589 1072.9159,-222.9297 1081.9342,-217.3691 1076.4982,-212.9589"/>
<text text-anchor="middle" x="1217.4979" y="-167.3337" font-family="Times,serif" font-size="14.00" fill="#000000">Hour 10 if hunger &lt;= 10</text>
</g>
<!-- exam&#45;&gt;death -->
<g id="edge18" class="edge">
<title>exam-&gt;death</title>
<path fill="none" stroke="#000000" d="M1407.572,-140.1337C1454.088,-140.1337 1538.2672,-140.1337 1591.491,-140.1337"/>
<polygon fill="#000000" stroke="#000000" points="1591.7027,-143.6338 1601.7027,-140.1337 1591.7027,-136.6338 1591.7027,-143.6338"/>
<text text-anchor="middle" x="1519.7877" y="-144.3337" font-family="Times,serif" font-size="14.00" fill="#000000">One of the stats is zero</text>
</g>
<!-- study&#45;&gt;sleep -->
<g id="edge9" class="edge">
<title>study-&gt;sleep</title>
<path fill="none" stroke="#000000" d="M323.9127,-205.3359C303.6284,-209.1245 276.7763,-213.8549 252.8694,-217.1337 191.1529,-225.5982 119.2881,-232.1603 74.8379,-235.8377"/>
<polygon fill="#000000" stroke="#000000" points="74.3772,-232.3636 64.6953,-236.6661 74.947,-239.3404 74.3772,-232.3636"/>
<text text-anchor="middle" x="167.9251" y="-255.1337" font-family="Times,serif" font-size="14.00" fill="#000000">Hour 1</text>
<text text-anchor="middle" x="167.9251" y="-238.3337" font-family="Times,serif" font-size="14.00" fill="#000000">Hour 23, 0 with a 80% chance</text>
</g>
<!-- study&#45;&gt;exam -->
<g id="edge6" class="edge">
<title>study-&gt;exam</title>
<path fill="none" stroke="#000000" d="M369.8193,-182.4259C387.964,-162.1372 421.694,-128.8128 458.758,-114.1337 630.9012,-45.9572 1110.0389,-80.6005 1291.9422,-115.1337 1306.6413,-117.9243 1322.4407,-122.3815 1336.2066,-126.7648"/>
<polygon fill="#000000" stroke="#000000" points="1335.2333,-130.129 1345.826,-129.9186 1337.4141,-123.4773 1335.2333,-130.129"/>
<text text-anchor="middle" x="904.7123" y="-85.3337" font-family="Times,serif" font-size="14.00" fill="#000000">Hour 9 with a 20% chance</text>
</g>
<!-- study&#45;&gt;study -->
<g id="edge23" class="edge">
<title>study-&gt;study</title>
<path fill="none" stroke="#000000" d="M329.4388,-210.3761C313.4303,-222.0523 322.2219,-235.1337 355.8137,-235.1337 382.3197,-235.1337 393.3846,-226.989 389.0085,-217.8166"/>
<polygon fill="#000000" stroke="#000000" points="391.5256,-215.3829 382.1885,-210.3761 386.3654,-220.1129 391.5256,-215.3829"/>
</g>
<!-- study&#45;&gt;eat -->
<g id="edge7" class="edge">
<title>study-&gt;eat</title>
<path fill="none" stroke="#000000" d="M389.1031,-196.6387C439.458,-193.8132 537.5846,-192.0296 617.3794,-213.1337 626.0263,-215.4207 626.7171,-219.9055 635.3794,-222.1337 775.0107,-258.0522 948.8111,-249.1302 1023.8042,-242.8272"/>
<polygon fill="#000000" stroke="#000000" points="1024.4797,-246.2815 1034.136,-241.9219 1023.8687,-239.3083 1024.4797,-246.2815"/>
<text text-anchor="middle" x="723.8237" y="-267.1337" font-family="Times,serif" font-size="14.00" fill="#000000">Hour 10 if hunger &lt;= 10</text>
<text text-anchor="middle" x="723.8237" y="-250.3337" font-family="Times,serif" font-size="14.00" fill="#000000">Hour 14, 20</text>
</g>
<!-- study&#45;&gt;death -->
<g id="edge19" class="edge">
<title>study-&gt;death</title>
<path fill="none" stroke="#000000" d="M365.1032,-181.6668C380.5476,-154.5665 414.2616,-103.0282 458.758,-79.1337 563.3482,-22.969 605.1072,-46.1337 723.8237,-46.1337 723.8237,-46.1337 723.8237,-46.1337 1373.8907,-46.1337 1457.2737,-46.1337 1547.3887,-87.7207 1598.3904,-115.5721"/>
<polygon fill="#000000" stroke="#000000" points="1596.7017,-118.6377 1607.1441,-120.4283 1600.0975,-112.5165 1596.7017,-118.6377"/>
<text text-anchor="middle" x="1061.1051" y="-50.3337" font-family="Times,serif" font-size="14.00" fill="#000000">One of the stats is zero</text>
</g>
<!-- rest -->
<g id="node6" class="node">
<title>rest</title>
<ellipse fill="none" stroke="#000000" cx="723.8237" cy="-316.1337" rx="28.4069" ry="18"/>
<text text-anchor="middle" x="723.8237" y="-311.9337" font-family="Times,serif" font-size="14.00" fill="#000000">Rest</text>
</g>
<!-- study&#45;&gt;rest -->
<g id="edge8" class="edge">
<title>study-&gt;rest</title>
<path fill="none" stroke="#000000" d="M373.7855,-214.6084C393.3228,-230.5231 426.1381,-254.6879 458.758,-267.1337 525.3257,-292.5321 547.4335,-276.772 617.3794,-290.3337 641.014,-294.9162 667.3067,-301.2766 687.8474,-306.5355"/>
<polygon fill="#000000" stroke="#000000" points="687.1673,-309.9747 697.7253,-309.0927 688.9217,-303.1981 687.1673,-309.9747"/>
<text text-anchor="middle" x="538.0687" y="-294.3337" font-family="Times,serif" font-size="14.00" fill="#000000">Hour 11</text>
</g>
<!-- study&#45;&gt;rest -->
<g id="edge10" class="edge">
<title>study-&gt;rest</title>
<path fill="none" stroke="#000000" d="M388.8751,-202.7475C458.7329,-210.4133 615.1686,-227.7519 617.3794,-229.5337 636.6171,-245.0395 618.2364,-264.3393 635.3794,-282.1337 648.8319,-296.0975 668.6457,-304.4105 686.1114,-309.3159"/>
<polygon fill="#000000" stroke="#000000" points="685.5052,-312.7726 696.0577,-311.8274 687.2189,-305.9856 685.5052,-312.7726"/>
<text text-anchor="middle" x="538.0687" y="-250.1337" font-family="Times,serif" font-size="14.00" fill="#000000">Hour 16, 17, 18, 19, </text>
<text text-anchor="middle" x="538.0687" y="-233.3337" font-family="Times,serif" font-size="14.00" fill="#000000">22, 23, 0 with a 33% chance</text>
</g>
<!-- eat&#45;&gt;exam -->
<g id="edge4" class="edge">
<title>eat-&gt;exam</title>
<path fill="none" stroke="#000000" d="M1083.6356,-228.9181C1099.862,-221.9274 1122.4379,-212.9428 1143.0536,-207.3337 1207.7431,-189.7333 1228.3504,-204.3612 1291.9422,-183.1337 1309.7374,-177.1935 1328.348,-167.7264 1343.3279,-159.1855"/>
<polygon fill="#000000" stroke="#000000" points="1345.2818,-162.0975 1352.1462,-154.0271 1341.7473,-156.0553 1345.2818,-162.0975"/>
<text text-anchor="middle" x="1217.4979" y="-212.3337" font-family="Times,serif" font-size="14.00" fill="#000000">Hour 8 with a 20% chance</text>
</g>
<!-- eat&#45;&gt;study -->
<g id="edge3" class="edge">
<title>eat-&gt;study</title>
<path fill="none" stroke="#000000" d="M1035.927,-232.2821C991.2883,-220.5256 895.1612,-196.9623 812.268,-188.5337 804.2925,-187.7228 481.5055,-186.9219 458.758,-188.1337 439.011,-189.1858 417.2236,-191.3652 398.7968,-193.5087"/>
<polygon fill="#000000" stroke="#000000" points="398.1718,-190.0585 388.659,-194.723 399.0043,-197.0088 398.1718,-190.0585"/>
<text text-anchor="middle" x="723.8237" y="-210.1337" font-family="Times,serif" font-size="14.00" fill="#000000">Hour 8 with a 80% chance</text>
<text text-anchor="middle" x="723.8237" y="-193.3337" font-family="Times,serif" font-size="14.00" fill="#000000">Hour 15, 21 with a 50% chance</text>
</g>
<!-- eat&#45;&gt;death -->
<g id="edge17" class="edge">
<title>eat-&gt;death</title>
<path fill="none" stroke="#000000" d="M1088.1843,-238.1775C1131.3794,-236.4716 1218.4987,-232.2917 1291.9422,-224.1337 1357.1848,-216.8867 1373.6645,-214.9446 1437.8392,-201.1337 1503.5702,-186.9879 1519.765,-181.8307 1583.7362,-161.1337 1587.2577,-159.9944 1590.8843,-158.7659 1594.5187,-157.4951"/>
<polygon fill="#000000" stroke="#000000" points="1595.858,-160.7332 1604.0908,-154.0645 1593.4962,-154.1437 1595.858,-160.7332"/>
<text text-anchor="middle" x="1373.8907" y="-226.3337" font-family="Times,serif" font-size="14.00" fill="#000000">One of the stats is zero</text>
</g>
<!-- eat&#45;&gt;rest -->
<g id="edge5" class="edge">
<title>eat-&gt;rest</title>
<path fill="none" stroke="#000000" d="M1034.9328,-244.1066C1018.8585,-247.1155 997.8376,-250.9691 979.1566,-254.1337 913.126,-265.3194 895.1229,-260.6311 830.268,-277.3337 805.1092,-283.8131 777.5761,-293.935 756.816,-302.2159"/>
<polygon fill="#000000" stroke="#000000" points="755.453,-298.9917 747.4985,-305.99 758.0811,-305.4797 755.453,-298.9917"/>
<text text-anchor="middle" x="904.7123" y="-281.3337" font-family="Times,serif" font-size="14.00" fill="#000000">Hour 11</text>
</g>
<!-- rest&#45;&gt;sleep -->
<g id="edge15" class="edge">
<title>rest-&gt;sleep</title>
<path fill="none" stroke="#000000" d="M705.4212,-329.9206C685.1033,-344.2063 650.8252,-365.6131 617.3794,-374.1337 549.0631,-391.538 528.6382,-383.4493 458.758,-374.1337 287.2201,-351.2666 240.8561,-343.0105 82.9808,-272.1337 75.3232,-268.6959 67.5109,-264.1757 60.3916,-259.5879"/>
<polygon fill="#000000" stroke="#000000" points="62.0598,-256.492 51.8083,-253.817 58.1541,-262.3011 62.0598,-256.492"/>
<text text-anchor="middle" x="355.8137" y="-392.1337" font-family="Times,serif" font-size="14.00" fill="#000000">Hour 1</text>
<text text-anchor="middle" x="355.8137" y="-375.3337" font-family="Times,serif" font-size="14.00" fill="#000000">Hour 23, 0 with a 80% chance</text>
</g>
<!-- rest&#45;&gt;study -->
<g id="edge13" class="edge">
<title>rest-&gt;study</title>
<path fill="none" stroke="#000000" d="M695.5757,-317.8301C636.1681,-320.9712 500.3498,-325.7899 458.758,-307.1337 420.4912,-289.9691 389.4505,-251.3156 371.8024,-225.2209"/>
<polygon fill="#000000" stroke="#000000" points="374.5398,-223.0128 366.1286,-216.5705 368.6865,-226.852 374.5398,-223.0128"/>
<text text-anchor="middle" x="538.0687" y="-357.9337" font-family="Times,serif" font-size="14.00" fill="#000000">Hour 12</text>
<text text-anchor="middle" x="538.0687" y="-341.1337" font-family="Times,serif" font-size="14.00" fill="#000000">Hour 16, 17, 18, 19, </text>
<text text-anchor="middle" x="538.0687" y="-324.3337" font-family="Times,serif" font-size="14.00" fill="#000000">22, 23, 0 with a 33% chance</text>
</g>
<!-- rest&#45;&gt;eat -->
<g id="edge14" class="edge">
<title>rest-&gt;eat</title>
<path fill="none" stroke="#000000" d="M752.109,-315.4736C809.5535,-313.8439 937.9233,-308.6511 979.1566,-294.1337 1000.4297,-286.6439 1021.4912,-272.3162 1036.9349,-260.1621"/>
<polygon fill="#000000" stroke="#000000" points="1039.3469,-262.7122 1044.9025,-253.6907 1034.9336,-257.2786 1039.3469,-262.7122"/>
<text text-anchor="middle" x="904.7123" y="-316.3337" font-family="Times,serif" font-size="14.00" fill="#000000">Hour 20</text>
</g>
<!-- rest&#45;&gt;death -->
<g id="edge20" class="edge">
<title>rest-&gt;death</title>
<path fill="none" stroke="#000000" d="M750.8069,-321.6555C772.2395,-325.747 803.031,-330.9725 830.268,-333.1337 896.2333,-338.3682 913.2941,-339.5343 979.1566,-333.1337 1185.9286,-313.0395 1237.0159,-296.3173 1437.8392,-243.1337 1503.9622,-225.6225 1525.2505,-229.6066 1583.7362,-194.1337 1591.9694,-189.1401 1599.9639,-182.7444 1607.215,-176.1136"/>
<polygon fill="#000000" stroke="#000000" points="1609.9657,-178.3255 1614.7676,-168.8813 1605.1243,-173.2696 1609.9657,-178.3255"/>
<text text-anchor="middle" x="1217.4979" y="-316.3337" font-family="Times,serif" font-size="14.00" fill="#000000">One of the stats is zero</text>
</g>
<!-- rest&#45;&gt;rest -->
<g id="edge22" class="edge">
<title>rest-&gt;rest</title>
<path fill="none" stroke="#000000" d="M699.881,-325.9021C681.2139,-337.9215 689.1947,-352.1337 723.8237,-352.1337 751.9596,-352.1337 762.5038,-342.7514 755.456,-332.7861"/>
<polygon fill="#000000" stroke="#000000" points="757.5514,-329.9644 747.7663,-325.9021 752.8824,-335.1798 757.5514,-329.9644"/>
</g>
</g>
</svg>